<?xml version="1.0" encoding="UTF-8" standalone="no"?>
<!-- Created with Inkscape (http://www.inkscape.org/) -->

<svg
   xmlns:dc="http://purl.org/dc/elements/1.1/"
   xmlns:cc="http://creativecommons.org/ns#"
   xmlns:rdf="http://www.w3.org/1999/02/22-rdf-syntax-ns#"
   xmlns:svg="http://www.w3.org/2000/svg"
   xmlns="http://www.w3.org/2000/svg"
   xmlns:sodipodi="http://sodipodi.sourceforge.net/DTD/sodipodi-0.dtd"
   xmlns:inkscape="http://www.inkscape.org/namespaces/inkscape"
   width="53mm"
   height="46mm"
   viewBox="0 0 53 46"
   version="1.1"
   id="svg8"
   inkscape:version="0.92.2 (5c3e80d, 2017-08-06)"
   sodipodi:docname="challange-white.svg">
  <defs
     id="defs2" />
  <sodipodi:namedview
     id="base"
     pagecolor="#ffffff"
     bordercolor="#666666"
     borderopacity="1.0"
     inkscape:pageopacity="0.0"
     inkscape:pageshadow="2"
     inkscape:zoom="3.959798"
     inkscape:cx="177.18566"
     inkscape:cy="104.79383"
     inkscape:document-units="mm"
     inkscape:current-layer="layer1"
     showgrid="false"
     inkscape:window-width="1920"
     inkscape:window-height="1001"
     inkscape:window-x="-9"
     inkscape:window-y="-9"
     inkscape:window-maximized="1" />
  <metadata
     id="metadata5">
    <rdf:RDF>
      <cc:Work
         rdf:about="">
        <dc:format>image/svg+xml</dc:format>
        <dc:type
           rdf:resource="http://purl.org/dc/dcmitype/StillImage" />
        <dc:title></dc:title>
      </cc:Work>
    </rdf:RDF>
  </metadata>
  <g
     inkscape:label="Ebene 1"
     inkscape:groupmode="layer"
     id="layer1"
     transform="translate(0,-251)">
    <path
       style="fill:#ffffff;stroke-width:0.17607388"
       d="m 12.192498,289.14905 c -1.433611,-0.31667 -2.5214211,-1.44115 -2.8313391,-2.92678 -0.417394,-2.00083 1.4368991,-4.24667 3.5157721,-4.25815 0.631079,-0.003 0.825994,-0.12887 1.975647,-1.27085 l 1.275493,-1.26698 -1.037791,-1.08075 c -1.243587,-1.29507 -1.46514,-2.00604 -0.940284,-3.01741 0.704127,-1.35682 2.277298,-1.62373 3.458352,-0.58675 l 0.58201,0.51101 1.127644,-1.13775 1.127644,-1.13776 -3.853692,-3.85668 -3.853692,-3.85668 -0.57394,-2.85684 c -0.315668,-1.57126 -0.534917,-2.95853 -0.487222,-3.08282 0.168683,-0.43958 0.641754,-0.42196 3.373336,0.12565 l 2.760704,0.55344 3.917644,3.89021 3.917644,3.89021 3.917643,-3.89021 3.917644,-3.89021 2.80413,-0.56235 c 3.792208,-0.7605 3.639057,-0.92011 2.839399,2.95901 l -0.595507,2.88878 -3.841265,3.84425 -3.841262,3.84424 1.127642,1.13776 1.127644,1.13775 0.582012,-0.51101 c 1.181053,-1.03698 2.754225,-0.77007 3.458352,0.58675 0.524855,1.01137 0.303301,1.72234 -0.940284,3.01741 l -1.037792,1.08075 1.275493,1.26698 c 1.149653,1.14198 1.344569,1.26736 1.975648,1.27085 1.565529,0.009 3.05023,1.23317 3.433799,2.83207 0.773736,3.2253 -2.838626,5.64084 -5.651705,3.77923 -0.824035,-0.54532 -1.567352,-1.92866 -1.570104,-2.92203 -0.0014,-0.53576 -0.177031,-0.7948 -1.283342,-1.89373 l -1.281623,-1.27307 -0.960315,0.9724 c -1.05342,1.06667 -1.799305,1.3832 -2.670599,1.13331 -1.667085,-0.47811 -2.161582,-2.41013 -0.942536,-3.68254 l 0.441417,-0.46074 -1.142244,-1.13209 -1.142245,-1.1321 -1.142246,1.1321 -1.142245,1.13209 0.441418,0.46074 c 1.56129,1.62964 0.173991,4.16231 -2.012665,3.67435 -0.379998,-0.0848 -0.960046,-0.49143 -1.589418,-1.11423 l -0.991047,-0.98071 -1.25058,1.27619 c -1.122056,1.14503 -1.26188,1.36519 -1.360531,2.1423 -0.287038,2.26108 -2.263359,3.71481 -4.406616,3.24139 z m 2.280963,-1.91384 c 0.240029,-0.2255 0.519249,-0.71761 0.620487,-1.09358 0.345295,-1.28232 -0.792218,-2.77279 -2.116175,-2.77279 -0.538587,0 -1.324807,0.44319 -1.753857,0.98863 -0.40657,0.51687 -0.502134,1.77657 -0.180383,2.37777 0.569053,1.06329 2.526574,1.34863 3.429928,0.49997 z m 24.889326,0.28037 c 1.531129,-0.79178 1.434602,-3.05871 -0.165475,-3.88615 -1.085736,-0.56145 -2.322764,-0.0834 -2.846223,1.09999 -0.388101,0.87736 -0.315252,1.53876 0.248412,2.25534 0.62266,0.79158 1.815799,1.02078 2.763286,0.53082 z m -21.634082,-6.51777 c -0.230523,-0.24538 -0.507071,-0.44615 -0.614549,-0.44615 -0.107478,0 -0.624628,0.43461 -1.149222,0.9658 l -0.953808,0.96581 0.513119,0.53558 0.513119,0.53558 1.055238,-1.05524 1.055238,-1.05523 z m 17.603092,0.52358 c -0.526727,-0.53335 -1.04562,-0.96973 -1.153099,-0.96973 -0.107477,0 -0.383216,0.1999 -0.612751,0.44423 l -0.417339,0.44424 1.042468,1.05346 1.042468,1.05346 0.527968,-0.52797 0.527969,-0.52796 z m -12.364962,1.14316 c 0.04094,-0.36369 -0.528186,-1.01667 -3.274806,-3.7573 -2.725146,-2.71921 -3.400558,-3.30635 -3.747104,-3.25737 -0.290254,0.041 -0.441471,0.19224 -0.482493,0.48249 -0.04898,0.34655 0.53816,1.02196 3.257367,3.74711 2.740634,2.74662 3.393614,3.31574 3.757299,3.2748 0.322367,-0.0363 0.453448,-0.16737 0.489737,-0.48973 z m 9.607959,-2.79061 c 2.718418,-2.72124 3.304619,-3.39494 3.255628,-3.74157 -0.04102,-0.29025 -0.192239,-0.44147 -0.482491,-0.48249 -0.346628,-0.049 -1.020325,0.53721 -3.74157,3.25563 -3.136853,3.13359 -3.614975,3.75634 -3.201442,4.16987 0.41353,0.41354 1.036281,-0.0646 4.169875,-3.20144 z m -9.076962,-1.66325 1.098598,-1.10845 -0.534518,-0.5121 -0.534517,-0.5121 -1.139172,1.12905 -1.139172,1.12904 0.470891,0.49151 c 0.258991,0.27032 0.517782,0.4915 0.575092,0.4915 0.05731,0 0.598569,-0.4988 1.202798,-1.10845 z m 6.073032,0.61909 0.468843,-0.48937 -6.598487,-6.59673 c -3.629167,-3.6282 -6.598486,-6.71993 -6.598486,-6.87052 0,-0.37939 0.354174,-0.69637 0.778077,-0.69637 0.232714,0 2.622551,2.26408 6.91928,6.55517 l 6.563781,6.55517 0.482496,-0.48249 0.482497,-0.4825 -7.48101,-7.47856 -7.48101,-7.47857 -1.819199,-0.36975 c -1.00056,-0.20337 -1.852685,-0.33627 -1.893613,-0.29534 -0.04093,0.0409 0.09074,0.89939 0.292581,1.90769 l 0.366995,1.83329 7.424316,7.43912 c 4.083373,4.09152 7.469266,7.43912 7.524206,7.43912 0.05494,0 0.310869,-0.22021 0.568733,-0.48936 z m -8.185919,-2.73198 1.098598,-1.10845 -0.494727,-0.47398 -0.494728,-0.47397 -1.127862,1.13797 -1.127862,1.13798 0.417542,0.44445 c 0.229648,0.24445 0.465444,0.44445 0.523991,0.44445 0.05855,0 0.600819,-0.4988 1.205048,-1.10845 z m 16.212352,-13.46935 c 0.204755,-1.02178 0.339617,-1.89044 0.299696,-1.93036 -0.03992,-0.0399 -0.891225,0.094 -1.891784,0.29759 l -1.819199,0.37018 -3.737606,3.73295 -3.737605,3.73294 0.47129,0.49192 0.471292,0.49193 2.838195,-2.81941 c 1.749912,-1.73832 2.971973,-2.8194 3.187081,-2.8194 0.416848,0 0.771464,0.3188 0.771464,0.69355 0,0.14903 -1.284556,1.5573 -2.854568,3.12947 l -2.854567,2.85851 0.515195,0.53775 0.515196,0.53775 3.72682,-3.7238 3.72682,-3.7238 z"
       id="path827"
       inkscape:connector-curvature="0" />
  </g>
</svg>
